<mxfile host="Electron" agent="Mozilla/5.0 (X11; Linux x86_64) AppleWebKit/537.36 (KHTML, like Gecko) draw.io/25.0.2 Chrome/128.0.6613.186 Electron/32.2.5 Safari/537.36" version="25.0.2">
  <diagram id="Ht1M8jgEwFfnCIfOTk4-" name="Page-1">
    <mxGraphModel dx="2607" dy="1518" grid="1" gridSize="10" guides="1" tooltips="1" connect="1" arrows="1" fold="1" page="1" pageScale="1" pageWidth="1169" pageHeight="827" math="0" shadow="0">
      <root>
        <mxCell id="0" />
        <mxCell id="1" parent="0" />
        <mxCell id="-QjtrjUzRDEMRZ5MF8oH-47" value="AWS CodeGroup" style="text;html=1;resizable=0;points=[];autosize=1;align=left;verticalAlign=top;spacingTop=-4;fontSize=30;fontStyle=1" parent="1" vertex="1">
          <mxGeometry x="56.5" y="64.5" width="250" height="40" as="geometry" />
        </mxCell>
        <mxCell id="-QjtrjUzRDEMRZ5MF8oH-48" value="Diagrama do projeto&amp;nbsp;" style="text;html=1;resizable=0;points=[];autosize=1;align=left;verticalAlign=top;spacingTop=-4;fontSize=16" parent="1" vertex="1">
          <mxGeometry x="56.5" y="114.5" width="170" height="30" as="geometry" />
        </mxCell>
        <mxCell id="SCVMTBWpLvtzJIhz15lM-1" value="" style="line;strokeWidth=2;html=1;fontSize=14;" parent="1" vertex="1">
          <mxGeometry x="52.5" y="139.5" width="1087.5" height="10" as="geometry" />
        </mxCell>
        <mxCell id="yEt8yCeqbnV-h7wycIcx-1" value="&lt;font style=&quot;font-size: 15px;&quot;&gt;AWS Cloud&lt;/font&gt;" style="points=[[0,0],[0.25,0],[0.5,0],[0.75,0],[1,0],[1,0.25],[1,0.5],[1,0.75],[1,1],[0.75,1],[0.5,1],[0.25,1],[0,1],[0,0.75],[0,0.5],[0,0.25]];outlineConnect=0;gradientColor=none;html=1;whiteSpace=wrap;fontSize=12;fontStyle=0;container=1;pointerEvents=0;collapsible=0;recursiveResize=0;shape=mxgraph.aws4.group;grIcon=mxgraph.aws4.group_aws_cloud_alt;strokeColor=#232F3E;fillColor=none;verticalAlign=top;align=left;spacingLeft=30;fontColor=#232F3E;dashed=0;" parent="1" vertex="1">
          <mxGeometry x="52.5" y="160" width="2137.5" height="1330" as="geometry" />
        </mxCell>
        <mxCell id="yEt8yCeqbnV-h7wycIcx-2" value="&lt;font style=&quot;font-size: 15px;&quot;&gt;Region us-east-1&lt;/font&gt;" style="points=[[0,0],[0.25,0],[0.5,0],[0.75,0],[1,0],[1,0.25],[1,0.5],[1,0.75],[1,1],[0.75,1],[0.5,1],[0.25,1],[0,1],[0,0.75],[0,0.5],[0,0.25]];outlineConnect=0;gradientColor=none;html=1;whiteSpace=wrap;fontSize=12;fontStyle=0;container=1;pointerEvents=0;collapsible=0;recursiveResize=0;shape=mxgraph.aws4.group;grIcon=mxgraph.aws4.group_region;strokeColor=#00A4A6;fillColor=none;verticalAlign=top;align=left;spacingLeft=30;fontColor=#147EBA;dashed=1;" parent="yEt8yCeqbnV-h7wycIcx-1" vertex="1">
          <mxGeometry x="5.75" y="30" width="2126" height="1280" as="geometry" />
        </mxCell>
        <mxCell id="yEt8yCeqbnV-h7wycIcx-27" style="edgeStyle=orthogonalEdgeStyle;rounded=0;orthogonalLoop=1;jettySize=auto;html=1;" parent="yEt8yCeqbnV-h7wycIcx-2" source="yEt8yCeqbnV-h7wycIcx-4" target="yEt8yCeqbnV-h7wycIcx-25" edge="1">
          <mxGeometry relative="1" as="geometry">
            <Array as="points">
              <mxPoint x="462" y="49" />
            </Array>
          </mxGeometry>
        </mxCell>
        <mxCell id="yEt8yCeqbnV-h7wycIcx-4" value="&lt;blockquote&gt;&lt;font style=&quot;font-size: 15px;&quot; color=&quot;#7f00ff&quot;&gt;VPC_DEVOPS = &quot;&lt;span style=&quot;font-family: &amp;quot;Droid Sans Mono&amp;quot;, &amp;quot;monospace&amp;quot;, monospace; white-space: pre;&quot;&gt;vpc-0b6e535a4b11a0065&lt;/span&gt;&quot; - 10.0.0.0/16&lt;/font&gt;&lt;/blockquote&gt;" style="points=[[0,0],[0.25,0],[0.5,0],[0.75,0],[1,0],[1,0.25],[1,0.5],[1,0.75],[1,1],[0.75,1],[0.5,1],[0.25,1],[0,1],[0,0.75],[0,0.5],[0,0.25]];outlineConnect=0;gradientColor=none;html=1;whiteSpace=wrap;fontSize=12;fontStyle=0;container=1;pointerEvents=0;collapsible=0;recursiveResize=0;shape=mxgraph.aws4.group;grIcon=mxgraph.aws4.group_vpc2;strokeColor=#8C4FFF;fillColor=none;verticalAlign=top;align=left;spacingLeft=30;fontColor=#AAB7B8;dashed=0;" parent="yEt8yCeqbnV-h7wycIcx-2" vertex="1">
          <mxGeometry x="21.75" y="170" width="960" height="870" as="geometry" />
        </mxCell>
        <mxCell id="yEt8yCeqbnV-h7wycIcx-7" value="&lt;blockquote style=&quot;line-height: 20px; white-space: pre;&quot;&gt;&lt;font face=&quot;Helvetica&quot; color=&quot;#006600&quot; style=&quot;font-size: 13px;&quot;&gt;subnet-03b038a9c7d627ba8 - 10.0.1.0/24&lt;/font&gt;&lt;/blockquote&gt;&lt;pre style=&quot;line-height: 20px; white-space: pre;&quot;&gt;&lt;font color=&quot;#006600&quot; face=&quot;Helvetica&quot; style=&quot;font-size: 11px;&quot;&gt;&lt;br&gt;&lt;/font&gt;&lt;/pre&gt;" style="points=[[0,0],[0.25,0],[0.5,0],[0.75,0],[1,0],[1,0.25],[1,0.5],[1,0.75],[1,1],[0.75,1],[0.5,1],[0.25,1],[0,1],[0,0.75],[0,0.5],[0,0.25]];outlineConnect=0;gradientColor=none;html=1;whiteSpace=wrap;fontSize=12;fontStyle=0;container=1;pointerEvents=0;collapsible=0;recursiveResize=0;shape=mxgraph.aws4.group;grIcon=mxgraph.aws4.group_security_group;grStroke=0;strokeColor=#7AA116;fillColor=#F2F6E8;verticalAlign=top;align=left;spacingLeft=30;fontColor=#248814;dashed=0;" parent="yEt8yCeqbnV-h7wycIcx-4" vertex="1">
          <mxGeometry x="10" y="60" width="420" height="360" as="geometry" />
        </mxCell>
        <mxCell id="yEt8yCeqbnV-h7wycIcx-29" value="MÃ¡quina Jenkins&lt;div&gt;&lt;br&gt;&lt;/div&gt;" style="sketch=0;points=[[0,0,0],[0.25,0,0],[0.5,0,0],[0.75,0,0],[1,0,0],[0,1,0],[0.25,1,0],[0.5,1,0],[0.75,1,0],[1,1,0],[0,0.25,0],[0,0.5,0],[0,0.75,0],[1,0.25,0],[1,0.5,0],[1,0.75,0]];outlineConnect=0;fontColor=#232F3E;fillColor=#ED7100;strokeColor=#ffffff;dashed=0;verticalLabelPosition=bottom;verticalAlign=top;align=center;html=1;fontSize=12;fontStyle=0;aspect=fixed;shape=mxgraph.aws4.resourceIcon;resIcon=mxgraph.aws4.ec2;" parent="yEt8yCeqbnV-h7wycIcx-7" vertex="1">
          <mxGeometry x="120" y="220" width="78" height="78" as="geometry" />
        </mxCell>
        <mxCell id="NWmjmEGQDHQncdlB8Ww0-5" value="registry&lt;div&gt;flask&lt;/div&gt;" style="sketch=0;points=[[0,0,0],[0.25,0,0],[0.5,0,0],[0.75,0,0],[1,0,0],[0,1,0],[0.25,1,0],[0.5,1,0],[0.75,1,0],[1,1,0],[0,0.25,0],[0,0.5,0],[0,0.75,0],[1,0.25,0],[1,0.5,0],[1,0.75,0]];outlineConnect=0;fontColor=#232F3E;fillColor=#ED7100;strokeColor=#ffffff;dashed=0;verticalLabelPosition=bottom;verticalAlign=top;align=center;html=1;fontSize=12;fontStyle=0;aspect=fixed;shape=mxgraph.aws4.resourceIcon;resIcon=mxgraph.aws4.ecr;" vertex="1" parent="yEt8yCeqbnV-h7wycIcx-7">
          <mxGeometry x="300" y="220" width="78" height="78" as="geometry" />
        </mxCell>
        <mxCell id="NWmjmEGQDHQncdlB8Ww0-6" style="edgeStyle=orthogonalEdgeStyle;rounded=0;orthogonalLoop=1;jettySize=auto;html=1;exitX=1;exitY=0.5;exitDx=0;exitDy=0;exitPerimeter=0;" edge="1" parent="yEt8yCeqbnV-h7wycIcx-7" source="yEt8yCeqbnV-h7wycIcx-29" target="NWmjmEGQDHQncdlB8Ww0-5">
          <mxGeometry relative="1" as="geometry" />
        </mxCell>
        <mxCell id="NWmjmEGQDHQncdlB8Ww0-12" value="&lt;blockquote&gt;&lt;span style=&quot;font-family: &amp;quot;Amazon Ember&amp;quot;, &amp;quot;Helvetica Neue&amp;quot;, Roboto, Arial, sans-serif; font-size: 14px; text-align: start; text-wrap: nowrap; background-color: rgb(255, 255, 255);&quot;&gt;&lt;font style=&quot;&quot; color=&quot;#0000ff&quot;&gt;codegroup_devops&lt;/font&gt;&lt;/span&gt;&lt;/blockquote&gt;" style="fillColor=none;strokeColor=#DD3522;verticalAlign=top;fontStyle=0;fontColor=#DD3522;whiteSpace=wrap;html=1;" vertex="1" parent="yEt8yCeqbnV-h7wycIcx-7">
          <mxGeometry x="58" y="150" width="202" height="200" as="geometry" />
        </mxCell>
        <mxCell id="yEt8yCeqbnV-h7wycIcx-8" value="&lt;blockquote style=&quot;line-height: 20px; white-space: pre;&quot;&gt;&lt;font face=&quot;Helvetica&quot; color=&quot;#006600&quot; style=&quot;font-size: 13px;&quot;&gt;subnet-0c6a7e07817542701 - 10.0.3.0/24&lt;/font&gt;&lt;/blockquote&gt;" style="points=[[0,0],[0.25,0],[0.5,0],[0.75,0],[1,0],[1,0.25],[1,0.5],[1,0.75],[1,1],[0.75,1],[0.5,1],[0.25,1],[0,1],[0,0.75],[0,0.5],[0,0.25]];outlineConnect=0;gradientColor=none;html=1;whiteSpace=wrap;fontSize=12;fontStyle=0;container=1;pointerEvents=0;collapsible=0;recursiveResize=0;shape=mxgraph.aws4.group;grIcon=mxgraph.aws4.group_security_group;grStroke=0;strokeColor=#7AA116;fillColor=#F2F6E8;verticalAlign=top;align=left;spacingLeft=30;fontColor=#248814;dashed=0;" parent="yEt8yCeqbnV-h7wycIcx-4" vertex="1">
          <mxGeometry x="460" y="60" width="470" height="360" as="geometry" />
        </mxCell>
        <mxCell id="yEt8yCeqbnV-h7wycIcx-11" value="&lt;blockquote style=&quot;line-height: 20px; white-space: pre;&quot;&gt;&lt;font face=&quot;Helvetica&quot; color=&quot;#006600&quot; style=&quot;font-size: 13px;&quot;&gt;subnet-097aa7bde465a9cb7 - 10.0.2.0/24&lt;/font&gt;&lt;/blockquote&gt;" style="points=[[0,0],[0.25,0],[0.5,0],[0.75,0],[1,0],[1,0.25],[1,0.5],[1,0.75],[1,1],[0.75,1],[0.5,1],[0.25,1],[0,1],[0,0.75],[0,0.5],[0,0.25]];outlineConnect=0;gradientColor=none;html=1;whiteSpace=wrap;fontSize=12;fontStyle=0;container=1;pointerEvents=0;collapsible=0;recursiveResize=0;shape=mxgraph.aws4.group;grIcon=mxgraph.aws4.group_security_group;grStroke=0;strokeColor=#00A4A6;fillColor=#E6F6F7;verticalAlign=top;align=left;spacingLeft=30;fontColor=#147EBA;dashed=0;" parent="yEt8yCeqbnV-h7wycIcx-4" vertex="1">
          <mxGeometry x="10" y="460" width="420" height="400" as="geometry" />
        </mxCell>
        <mxCell id="yEt8yCeqbnV-h7wycIcx-21" value="&lt;blockquote style=&quot;line-height: 20px; white-space: pre;&quot;&gt;&lt;font face=&quot;Helvetica&quot; style=&quot;font-size: 13px;&quot; color=&quot;#006600&quot;&gt;subnet-036562ba153dde991 - 10.0.4.0/24&lt;/font&gt;&lt;/blockquote&gt;" style="points=[[0,0],[0.25,0],[0.5,0],[0.75,0],[1,0],[1,0.25],[1,0.5],[1,0.75],[1,1],[0.75,1],[0.5,1],[0.25,1],[0,1],[0,0.75],[0,0.5],[0,0.25]];outlineConnect=0;gradientColor=none;html=1;whiteSpace=wrap;fontSize=12;fontStyle=0;container=1;pointerEvents=0;collapsible=0;recursiveResize=0;shape=mxgraph.aws4.group;grIcon=mxgraph.aws4.group_security_group;grStroke=0;strokeColor=#00A4A6;fillColor=#E6F6F7;verticalAlign=top;align=left;spacingLeft=30;fontColor=#147EBA;dashed=0;" parent="yEt8yCeqbnV-h7wycIcx-4" vertex="1">
          <mxGeometry x="460" y="460" width="470" height="400" as="geometry" />
        </mxCell>
        <mxCell id="yEt8yCeqbnV-h7wycIcx-35" style="edgeStyle=orthogonalEdgeStyle;rounded=0;orthogonalLoop=1;jettySize=auto;html=1;" parent="yEt8yCeqbnV-h7wycIcx-2" source="yEt8yCeqbnV-h7wycIcx-5" target="yEt8yCeqbnV-h7wycIcx-25" edge="1">
          <mxGeometry relative="1" as="geometry">
            <Array as="points">
              <mxPoint x="1620" y="49" />
            </Array>
          </mxGeometry>
        </mxCell>
        <mxCell id="yEt8yCeqbnV-h7wycIcx-5" value="&lt;pre&gt;&lt;font style=&quot;font-size: 15px;&quot; color=&quot;#9933ff&quot;&gt;VPC_APPS = &quot;vpc-08cb7944e26aa0c37&quot; - 10.1.0.0/16&lt;/font&gt;&lt;br&gt;&lt;/pre&gt;" style="points=[[0,0],[0.25,0],[0.5,0],[0.75,0],[1,0],[1,0.25],[1,0.5],[1,0.75],[1,1],[0.75,1],[0.5,1],[0.25,1],[0,1],[0,0.75],[0,0.5],[0,0.25]];outlineConnect=0;gradientColor=none;html=1;whiteSpace=wrap;fontSize=12;fontStyle=0;container=1;pointerEvents=0;collapsible=0;recursiveResize=0;shape=mxgraph.aws4.group;grIcon=mxgraph.aws4.group_vpc2;strokeColor=#8C4FFF;fillColor=none;verticalAlign=top;align=left;spacingLeft=30;fontColor=#AAB7B8;dashed=0;" parent="yEt8yCeqbnV-h7wycIcx-2" vertex="1">
          <mxGeometry x="1131.75" y="160" width="976.5" height="880" as="geometry" />
        </mxCell>
        <mxCell id="yEt8yCeqbnV-h7wycIcx-9" value="&lt;blockquote style=&quot;line-height: 20px; white-space: pre;&quot;&gt;&lt;font face=&quot;Helvetica&quot; color=&quot;#006600&quot; style=&quot;font-size: 13px;&quot;&gt;subnet-027ea83a0c1ea6805 - 10.1.1.0/24&lt;/font&gt;&lt;/blockquote&gt;" style="points=[[0,0],[0.25,0],[0.5,0],[0.75,0],[1,0],[1,0.25],[1,0.5],[1,0.75],[1,1],[0.75,1],[0.5,1],[0.25,1],[0,1],[0,0.75],[0,0.5],[0,0.25]];outlineConnect=0;gradientColor=none;html=1;whiteSpace=wrap;fontSize=12;fontStyle=0;container=1;pointerEvents=0;collapsible=0;recursiveResize=0;shape=mxgraph.aws4.group;grIcon=mxgraph.aws4.group_security_group;grStroke=0;strokeColor=#7AA116;fillColor=#F2F6E8;verticalAlign=top;align=left;spacingLeft=30;fontColor=#248814;dashed=0;" parent="yEt8yCeqbnV-h7wycIcx-5" vertex="1">
          <mxGeometry x="10" y="60" width="460" height="360" as="geometry" />
        </mxCell>
        <mxCell id="yEt8yCeqbnV-h7wycIcx-31" value="app - flaskapi&lt;div&gt;&lt;br&gt;&lt;/div&gt;" style="sketch=0;points=[[0,0,0],[0.25,0,0],[0.5,0,0],[0.75,0,0],[1,0,0],[0,1,0],[0.25,1,0],[0.5,1,0],[0.75,1,0],[1,1,0],[0,0.25,0],[0,0.5,0],[0,0.75,0],[1,0.25,0],[1,0.5,0],[1,0.75,0]];outlineConnect=0;fontColor=#232F3E;fillColor=#ED7100;strokeColor=#ffffff;dashed=0;verticalLabelPosition=bottom;verticalAlign=top;align=center;html=1;fontSize=12;fontStyle=0;aspect=fixed;shape=mxgraph.aws4.resourceIcon;resIcon=mxgraph.aws4.ec2;" parent="yEt8yCeqbnV-h7wycIcx-9" vertex="1">
          <mxGeometry x="148.25" y="120" width="78" height="78" as="geometry" />
        </mxCell>
        <mxCell id="NWmjmEGQDHQncdlB8Ww0-14" value="&lt;blockquote&gt;&lt;span style=&quot;font-family: &amp;quot;Amazon Ember&amp;quot;, &amp;quot;Helvetica Neue&amp;quot;, Roboto, Arial, sans-serif; font-weight: 700; letter-spacing: -0.48px; text-align: start;&quot;&gt;&lt;font color=&quot;#0000ff&quot; style=&quot;font-size: 14px;&quot;&gt;&amp;nbsp;codegroup_apps_sg&lt;/font&gt;&lt;/span&gt;&lt;/blockquote&gt;" style="fillColor=none;strokeColor=#DD3522;verticalAlign=top;fontStyle=0;fontColor=#DD3522;whiteSpace=wrap;html=1;" vertex="1" parent="yEt8yCeqbnV-h7wycIcx-9">
          <mxGeometry x="86.25" y="70" width="202" height="200" as="geometry" />
        </mxCell>
        <mxCell id="yEt8yCeqbnV-h7wycIcx-10" value="&lt;blockquote style=&quot;line-height: 20px; white-space: pre;&quot;&gt;&lt;font color=&quot;#006600&quot; style=&quot;font-size: 13px;&quot; face=&quot;Helvetica&quot;&gt;subnet-0758abbb14bdb5726 - 10.1.3.0/24&lt;/font&gt;&lt;/blockquote&gt;" style="points=[[0,0],[0.25,0],[0.5,0],[0.75,0],[1,0],[1,0.25],[1,0.5],[1,0.75],[1,1],[0.75,1],[0.5,1],[0.25,1],[0,1],[0,0.75],[0,0.5],[0,0.25]];outlineConnect=0;gradientColor=none;html=1;whiteSpace=wrap;fontSize=12;fontStyle=0;container=1;pointerEvents=0;collapsible=0;recursiveResize=0;shape=mxgraph.aws4.group;grIcon=mxgraph.aws4.group_security_group;grStroke=0;strokeColor=#7AA116;fillColor=#F2F6E8;verticalAlign=top;align=left;spacingLeft=30;fontColor=#248814;dashed=0;" parent="yEt8yCeqbnV-h7wycIcx-5" vertex="1">
          <mxGeometry x="500" y="60" width="450" height="360" as="geometry" />
        </mxCell>
        <mxCell id="yEt8yCeqbnV-h7wycIcx-22" value="&lt;blockquote style=&quot;line-height: 20px; white-space: pre;&quot;&gt;&lt;font color=&quot;#006600&quot; style=&quot;font-size: 13px;&quot; face=&quot;Helvetica&quot;&gt;subnet-09b077175c45524f9 - 10.1.2.0/24&lt;/font&gt;&lt;/blockquote&gt;" style="points=[[0,0],[0.25,0],[0.5,0],[0.75,0],[1,0],[1,0.25],[1,0.5],[1,0.75],[1,1],[0.75,1],[0.5,1],[0.25,1],[0,1],[0,0.75],[0,0.5],[0,0.25]];outlineConnect=0;gradientColor=none;html=1;whiteSpace=wrap;fontSize=12;fontStyle=0;container=1;pointerEvents=0;collapsible=0;recursiveResize=0;shape=mxgraph.aws4.group;grIcon=mxgraph.aws4.group_security_group;grStroke=0;strokeColor=#00A4A6;fillColor=#E6F6F7;verticalAlign=top;align=left;spacingLeft=30;fontColor=#147EBA;dashed=0;" parent="yEt8yCeqbnV-h7wycIcx-5" vertex="1">
          <mxGeometry x="10" y="460" width="470" height="410" as="geometry" />
        </mxCell>
        <mxCell id="yEt8yCeqbnV-h7wycIcx-30" value="rds-mysql&lt;div&gt;&lt;br&gt;&lt;/div&gt;" style="sketch=0;points=[[0,0,0],[0.25,0,0],[0.5,0,0],[0.75,0,0],[1,0,0],[0,1,0],[0.25,1,0],[0.5,1,0],[0.75,1,0],[1,1,0],[0,0.25,0],[0,0.5,0],[0,0.75,0],[1,0.25,0],[1,0.5,0],[1,0.75,0]];outlineConnect=0;fontColor=#232F3E;fillColor=#C925D1;strokeColor=#ffffff;dashed=0;verticalLabelPosition=bottom;verticalAlign=top;align=center;html=1;fontSize=12;fontStyle=0;aspect=fixed;shape=mxgraph.aws4.resourceIcon;resIcon=mxgraph.aws4.database;" parent="yEt8yCeqbnV-h7wycIcx-22" vertex="1">
          <mxGeometry x="158.25" y="120" width="78" height="78" as="geometry" />
        </mxCell>
        <mxCell id="NWmjmEGQDHQncdlB8Ww0-15" value="&lt;span style=&quot;font-family: &amp;quot;Amazon Ember&amp;quot;, &amp;quot;Helvetica Neue&amp;quot;, Roboto, Arial, sans-serif; font-size: 14px; text-align: start; text-wrap: nowrap;&quot;&gt;&lt;font style=&quot;&quot; color=&quot;#0000ff&quot;&gt;codegroup_apps_sg_rds&lt;/font&gt;&lt;/span&gt;" style="fillColor=none;strokeColor=#DD3522;verticalAlign=top;fontStyle=0;fontColor=#DD3522;whiteSpace=wrap;html=1;" vertex="1" parent="yEt8yCeqbnV-h7wycIcx-22">
          <mxGeometry x="90" y="70" width="220" height="200" as="geometry" />
        </mxCell>
        <mxCell id="yEt8yCeqbnV-h7wycIcx-23" value="&lt;blockquote style=&quot;line-height: 20px; white-space: pre;&quot;&gt;&lt;font color=&quot;#006600&quot; style=&quot;font-size: 13px;&quot; face=&quot;Helvetica&quot;&gt;subnet-071016d99047ae907 - 10.1.4.0/24&lt;/font&gt;&lt;/blockquote&gt;" style="points=[[0,0],[0.25,0],[0.5,0],[0.75,0],[1,0],[1,0.25],[1,0.5],[1,0.75],[1,1],[0.75,1],[0.5,1],[0.25,1],[0,1],[0,0.75],[0,0.5],[0,0.25]];outlineConnect=0;gradientColor=none;html=1;whiteSpace=wrap;fontSize=12;fontStyle=0;container=1;pointerEvents=0;collapsible=0;recursiveResize=0;shape=mxgraph.aws4.group;grIcon=mxgraph.aws4.group_security_group;grStroke=0;strokeColor=#00A4A6;fillColor=#E6F6F7;verticalAlign=top;align=left;spacingLeft=30;fontColor=#147EBA;dashed=0;" parent="yEt8yCeqbnV-h7wycIcx-5" vertex="1">
          <mxGeometry x="500" y="460" width="460" height="410" as="geometry" />
        </mxCell>
        <mxCell id="yEt8yCeqbnV-h7wycIcx-32" style="edgeStyle=orthogonalEdgeStyle;rounded=0;orthogonalLoop=1;jettySize=auto;html=1;entryX=1;entryY=0.5;entryDx=0;entryDy=0;entryPerimeter=0;" parent="yEt8yCeqbnV-h7wycIcx-5" source="yEt8yCeqbnV-h7wycIcx-31" target="yEt8yCeqbnV-h7wycIcx-30" edge="1">
          <mxGeometry relative="1" as="geometry">
            <Array as="points">
              <mxPoint x="368" y="219" />
              <mxPoint x="368" y="619" />
            </Array>
          </mxGeometry>
        </mxCell>
        <mxCell id="yEt8yCeqbnV-h7wycIcx-25" value="&lt;div style=&quot;font-family: &amp;quot;Droid Sans Mono&amp;quot;, &amp;quot;monospace&amp;quot;, monospace; font-weight: normal; line-height: 20px; white-space: pre;&quot;&gt;&lt;h2 style=&quot;&quot;&gt;&lt;font color=&quot;#4c0099&quot; style=&quot;font-size: 16px;&quot;&gt;pcx-0c7c121d981457388&lt;/font&gt;&lt;/h2&gt;&lt;/div&gt;" style="sketch=0;outlineConnect=0;fontColor=#232F3E;gradientColor=none;fillColor=#8C4FFF;strokeColor=none;dashed=0;verticalLabelPosition=bottom;verticalAlign=top;align=center;html=1;fontSize=12;fontStyle=0;aspect=fixed;pointerEvents=1;shape=mxgraph.aws4.peering;" parent="yEt8yCeqbnV-h7wycIcx-2" vertex="1">
          <mxGeometry x="1024" y="10" width="78" height="78" as="geometry" />
        </mxCell>
        <mxCell id="NWmjmEGQDHQncdlB8Ww0-1" value="devops-tfstate" style="sketch=0;points=[[0,0,0],[0.25,0,0],[0.5,0,0],[0.75,0,0],[1,0,0],[0,1,0],[0.25,1,0],[0.5,1,0],[0.75,1,0],[1,1,0],[0,0.25,0],[0,0.5,0],[0,0.75,0],[1,0.25,0],[1,0.5,0],[1,0.75,0]];outlineConnect=0;fontColor=#232F3E;fillColor=#7AA116;strokeColor=#ffffff;dashed=0;verticalLabelPosition=bottom;verticalAlign=top;align=center;html=1;fontSize=12;fontStyle=0;aspect=fixed;shape=mxgraph.aws4.resourceIcon;resIcon=mxgraph.aws4.s3;" vertex="1" parent="yEt8yCeqbnV-h7wycIcx-2">
          <mxGeometry x="161.75" y="1100" width="78" height="78" as="geometry" />
        </mxCell>
        <mxCell id="NWmjmEGQDHQncdlB8Ww0-2" value="apps-tfstate&lt;div&gt;&lt;br&gt;&lt;/div&gt;" style="sketch=0;points=[[0,0,0],[0.25,0,0],[0.5,0,0],[0.75,0,0],[1,0,0],[0,1,0],[0.25,1,0],[0.5,1,0],[0.75,1,0],[1,1,0],[0,0.25,0],[0,0.5,0],[0,0.75,0],[1,0.25,0],[1,0.5,0],[1,0.75,0]];outlineConnect=0;fontColor=#232F3E;fillColor=#7AA116;strokeColor=#ffffff;dashed=0;verticalLabelPosition=bottom;verticalAlign=top;align=center;html=1;fontSize=12;fontStyle=0;aspect=fixed;shape=mxgraph.aws4.resourceIcon;resIcon=mxgraph.aws4.s3;" vertex="1" parent="yEt8yCeqbnV-h7wycIcx-2">
          <mxGeometry x="351.75" y="1100" width="78" height="78" as="geometry" />
        </mxCell>
        <mxCell id="NWmjmEGQDHQncdlB8Ww0-3" value="s3-dados" style="sketch=0;points=[[0,0,0],[0.25,0,0],[0.5,0,0],[0.75,0,0],[1,0,0],[0,1,0],[0.25,1,0],[0.5,1,0],[0.75,1,0],[1,1,0],[0,0.25,0],[0,0.5,0],[0,0.75,0],[1,0.25,0],[1,0.5,0],[1,0.75,0]];outlineConnect=0;fontColor=#232F3E;fillColor=#7AA116;strokeColor=#ffffff;dashed=0;verticalLabelPosition=bottom;verticalAlign=top;align=center;html=1;fontSize=12;fontStyle=0;aspect=fixed;shape=mxgraph.aws4.resourceIcon;resIcon=mxgraph.aws4.s3;" vertex="1" parent="yEt8yCeqbnV-h7wycIcx-2">
          <mxGeometry x="551.75" y="1100" width="78" height="78" as="geometry" />
        </mxCell>
        <mxCell id="NWmjmEGQDHQncdlB8Ww0-4" style="edgeStyle=orthogonalEdgeStyle;rounded=0;orthogonalLoop=1;jettySize=auto;html=1;entryX=0;entryY=0.5;entryDx=0;entryDy=0;entryPerimeter=0;" edge="1" parent="yEt8yCeqbnV-h7wycIcx-2" source="NWmjmEGQDHQncdlB8Ww0-3" target="yEt8yCeqbnV-h7wycIcx-31">
          <mxGeometry relative="1" as="geometry">
            <Array as="points">
              <mxPoint x="1042" y="1139" />
              <mxPoint x="1042" y="379" />
            </Array>
          </mxGeometry>
        </mxCell>
        <mxCell id="NWmjmEGQDHQncdlB8Ww0-9" style="edgeStyle=orthogonalEdgeStyle;rounded=0;orthogonalLoop=1;jettySize=auto;html=1;" edge="1" parent="yEt8yCeqbnV-h7wycIcx-2" source="NWmjmEGQDHQncdlB8Ww0-8" target="yEt8yCeqbnV-h7wycIcx-29">
          <mxGeometry relative="1" as="geometry">
            <Array as="points">
              <mxPoint x="82" y="79" />
              <mxPoint x="82" y="500" />
            </Array>
          </mxGeometry>
        </mxCell>
        <mxCell id="NWmjmEGQDHQncdlB8Ww0-11" style="edgeStyle=orthogonalEdgeStyle;rounded=0;orthogonalLoop=1;jettySize=auto;html=1;" edge="1" parent="yEt8yCeqbnV-h7wycIcx-2" source="NWmjmEGQDHQncdlB8Ww0-8" target="yEt8yCeqbnV-h7wycIcx-31">
          <mxGeometry relative="1" as="geometry">
            <Array as="points">
              <mxPoint x="342" y="79" />
              <mxPoint x="342" y="150" />
              <mxPoint x="1622" y="150" />
              <mxPoint x="1622" y="379" />
            </Array>
          </mxGeometry>
        </mxCell>
        <mxCell id="NWmjmEGQDHQncdlB8Ww0-8" value="jenkins-user&lt;div&gt;codegroup&lt;/div&gt;" style="sketch=0;outlineConnect=0;fontColor=#232F3E;gradientColor=none;fillColor=#232F3D;strokeColor=none;dashed=0;verticalLabelPosition=bottom;verticalAlign=top;align=center;html=1;fontSize=12;fontStyle=0;aspect=fixed;pointerEvents=1;shape=mxgraph.aws4.user;" vertex="1" parent="yEt8yCeqbnV-h7wycIcx-2">
          <mxGeometry x="221.75" y="40" width="78" height="78" as="geometry" />
        </mxCell>
        <mxCell id="NWmjmEGQDHQncdlB8Ww0-10" style="edgeStyle=orthogonalEdgeStyle;rounded=0;orthogonalLoop=1;jettySize=auto;html=1;entryX=1;entryY=0.5;entryDx=0;entryDy=0;entryPerimeter=0;" edge="1" parent="yEt8yCeqbnV-h7wycIcx-2" source="NWmjmEGQDHQncdlB8Ww0-8" target="NWmjmEGQDHQncdlB8Ww0-5">
          <mxGeometry relative="1" as="geometry">
            <Array as="points">
              <mxPoint x="522" y="79" />
              <mxPoint x="522" y="489" />
            </Array>
          </mxGeometry>
        </mxCell>
        <mxCell id="yEt8yCeqbnV-h7wycIcx-6" value="&lt;div&gt;&lt;br&gt;&lt;/div&gt;&lt;div&gt;&lt;br&gt;&lt;/div&gt;" style="text;html=1;align=center;verticalAlign=middle;resizable=0;points=[];autosize=1;strokeColor=none;fillColor=none;" parent="1" vertex="1">
          <mxGeometry x="1160" y="73" width="20" height="40" as="geometry" />
        </mxCell>
      </root>
    </mxGraphModel>
  </diagram>
</mxfile>
